# xmcd
#
# Track frame offsets: 
#        150
#        16584
#        27267
#        46321
#        62468
#        80470
#        94173
#        109443
#        123428
#        147154
#        169506
#
# Disc length: 2436 seconds
#
# Revision: 0
# Processed by: cddbd v1.5.2PL0 Copyright (c) Steve Scherf et al.
# Submitted via: ExactAudioCopy v0.95b4
#
DISCID=8409820b
DTITLE=Mishouris Blues Trio - Stolen Blues
DYEAR=2009
DGENRE=Blues
TTITLE0=You Don't Have to Go
TTITLE1=Shake 'Em on Down
TTITLE2=Tom Rushen Blues
TTITLE3=John the Revelator
TTITLE4=Prison Cell Blues
TTITLE5=Boom, Boom Out Goes the Lights
TTITLE6=How Long, How Long
TTITLE7=Joshua Fit the Battle of Jericho
TTITLE8=Wang Dang Doodle
TTITLE9=St.Louis Blues
TTITLE10=Nemov's Theme
EXTD=
EXTT0=
EXTT1=
EXTT2=
EXTT3=
EXTT4=
EXTT5=
EXTT6=
EXTT7=
EXTT8=
EXTT9=
EXTT10=
PLAYORDER=
